<?xml version="1.0" encoding="iso-8859-1"?><!-- Generator: Adobe Illustrator 16.0.0, SVG Export Plug-In . SVG Version: 6.00 Build 0) --><!DOCTYPE svg PUBLIC "-//W3C//DTD SVG 1.1//EN" "http://www.w3.org/Graphics/SVG/1.1/DTD/svg11.dtd"><svg version="1.1" id="Layer_1" xmlns="http://www.w3.org/2000/svg" xmlns:xlink="http://www.w3.org/1999/xlink" x="0px" y="0px" width="191.331px" height="55.328px" viewBox="7104.335 7172.337 191.331 55.328" style="enable-background:new 7104.335 7172.337 191.331 55.328;" xml:space="preserve"><g><g><path d="M7151.891,7212.926c-1.299,2.881-1.922,4.166-3.595,6.711c-2.334,3.556-5.625,7.979-9.703,8.019	c-3.625,0.033-4.557-2.357-9.475-2.332c-4.917,0.026-5.943,2.373-9.566,2.34c-4.078-0.037-7.197-4.033-9.533-7.586	c-6.528-9.938-7.211-21.6-3.186-27.799c2.861-4.404,7.376-6.982,11.622-6.982c4.323,0,7.04,2.369,10.612,2.369	c3.467,0,5.578-2.373,10.576-2.373c3.776,0,7.778,2.059,10.631,5.609C7140.932,7196.021,7142.451,7209.358,7151.891,7212.926	L7151.891,7212.926z"/><path d="M7135.854,7181.319c1.815-2.33,3.194-5.619,2.694-8.982c-2.967,0.205-6.437,2.092-8.461,4.551	c-1.838,2.232-3.355,5.543-2.766,8.762C7130.56,7185.749,7133.91,7183.815,7135.854,7181.319L7135.854,7181.319z"/></g><g><path d="M7168.464,7197.131c0,2.019-1.535,3.647-3.938,3.647c-2.305,0-3.84-1.631-3.792-3.647c-0.048-2.11,1.487-3.694,3.84-3.694	S7168.417,7195.021,7168.464,7197.131z M7160.928,7227.135v-23.476h7.297v23.476H7160.928z"/><path d="M7180.56,7200.924h-8.688v-6.144h24.865v6.144h-8.832v26.211h-7.347L7180.56,7200.924L7180.56,7200.924z"/><path d="M7219.921,7219.599c0,3.071,0.097,5.567,0.19,7.537h-6.336l-0.336-3.312h-0.146c-0.912,1.439-3.121,3.842-7.346,3.842	c-4.753,0-8.257-2.979-8.257-10.227v-13.775h7.345v12.625c0,3.408,1.104,5.471,3.648,5.471c2.018,0,3.169-1.391,3.648-2.543	c0.19-0.432,0.237-1.008,0.237-1.584v-13.969h7.347v15.936H7219.921L7219.921,7219.599z"/><path d="M7225.775,7211.147c0-2.93-0.096-5.426-0.191-7.487h6.336l0.336,3.217h0.146c0.959-1.487,3.357-3.744,7.248-3.744	c4.801,0,8.398,3.168,8.398,10.08v13.922h-7.295v-13.01c0-3.022-1.057-5.088-3.695-5.088c-2.018,0-3.217,1.394-3.695,2.733	c-0.191,0.48-0.287,1.152-0.287,1.824v13.537h-7.297v-15.983L7225.775,7211.147L7225.775,7211.147z"/><path d="M7259.52,7217.726c0.24,3.024,3.217,4.465,6.625,4.465c2.496,0,4.513-0.336,6.479-0.959l0.961,4.942	c-2.399,0.961-5.328,1.487-8.498,1.487c-7.97,0-12.528-4.655-12.528-12.002c0-5.953,3.696-12.526,11.856-12.526	c7.586,0,10.465,5.901,10.465,11.713c0,1.248-0.145,2.353-0.238,2.879L7259.52,7217.726L7259.52,7217.726z M7268.113,7212.731	c0-1.774-0.77-4.752-4.129-4.752c-3.072,0-4.32,2.783-4.514,4.752H7268.113z"/><path d="M7279.199,7220.75c1.347,0.813,4.129,1.774,6.289,1.774c2.209,0,3.121-0.77,3.121-1.969s-0.721-1.775-3.457-2.688	c-4.849-1.631-6.721-4.271-6.672-7.008c0-4.416,3.744-7.73,9.554-7.73c2.735,0,5.187,0.625,6.625,1.346l-1.297,5.041	c-1.058-0.576-3.071-1.346-5.088-1.346c-1.774,0-2.784,0.721-2.784,1.92c0,1.105,0.912,1.682,3.792,2.689	c4.465,1.535,6.337,3.793,6.385,7.248c0,4.369-3.456,7.633-10.177,7.633c-3.07,0-5.811-0.722-7.585-1.683L7279.199,7220.75z"/></g></g></svg>