<?xml version="1.0" encoding="utf-8"?>
<!-- Generator: Adobe Illustrator 19.0.0, SVG Export Plug-In . SVG Version: 6.00 Build 0)  -->
<svg version="1.1" id="Layer_1" xmlns="http://www.w3.org/2000/svg" xmlns:xlink="http://www.w3.org/1999/xlink" x="0px" y="0px"
	 viewBox="0 0 1209.2 680.9" style="enable-background:new 0 0 1209.2 680.9;" xml:space="preserve">
<style type="text/css">
	.st0{opacity:0.52;}
</style>
<g id="XMLID_1_" class="st0">
	<g id="XMLID_2_">
		<path id="XMLID_6_" d="M291.2,642.9h-235v-82.5h228.5l0.3-0.4l103.1-147.2l71.9,88.1l90.2-391c7.4-32,28.9-57.6,59-70.3
			c30-12.6,64.2-10.2,91.6,6.5c14.3,8.7,25.7,21.6,32.9,37.1l38.6,83.6l-74.9,34.6l-38.6-83.6c-0.3-0.7-0.7-1.1-0.9-1.2
			c-4.8-3-11.1-3.3-16.7-1c-3.9,1.6-8.9,5.2-10.6,12.8L526.3,580.7c-5,21.6-23.1,37.6-45.1,40c-19.7,2.1-38.6-7.2-49.1-23.5
			l-38.9-47.7l-38.7,55.2C342.1,628,317.8,642.9,291.2,642.9z"/>
	</g>
	<g id="XMLID_3_">
		<path id="XMLID_5_" d="M1121,649.3l-181.8-76.4L916,607.5c-12.2,18.1-33.2,27.7-54.8,25.1c-21.7-2.7-39.7-17.1-47.1-37.6
			L760.5,446l77.7-27.9L875,520.4l33.6-50L1153,573.2L1121,649.3z"/>
	</g>
</g>
</svg>
