<svg xmlns="http://www.w3.org/2000/svg" xmlns:xlink="http://www.w3.org/1999/xlink" version="1.1" x="0px" y="0px" viewBox="0 0 80 100" enable-background="new 0 0 80 80" xml:space="preserve"><g><g><path fill="#000000" d="M35.4,48.1L35.4,48.1c-1.3,0-2.4-1.1-2.4-2.4v-7.3c0-1.3,1.1-2.4,2.4-2.4c0.4,0,0.8,0.1,1.1,0.3l7,3.7    c0.8,0.4,1.3,1.2,1.3,2.1c0,0.9-0.5,1.7-1.3,2.1l-7,3.7C36.2,48,35.8,48.1,35.4,48.1z M35.4,38c-0.2,0-0.4,0.2-0.4,0.4v7.3    c0,0.3,0.4,0.5,0.6,0.3l6.9-3.7c0.2-0.1,0.2-0.3,0.2-0.3c0-0.1,0-0.2-0.2-0.3l-7-3.7C35.6,38,35.5,38,35.4,38z"/></g><g><path fill="#000000" d="M38,62c-6,0-11.7-2.7-15.5-7.4l1.5-1.3c3.4,4.2,8.5,6.6,14,6.6c9.9,0,18-8.1,18-18s-8.1-18-18-18    s-18,8.1-18,18h-2c0-11,9-20,20-20s20,9,20,20S49,62,38,62z"/></g><g><polygon fill="#000000" points="19,43.3 12.6,37.8 13.9,36.2 19,40.7 24.1,36.2 25.4,37.8   "/></g></g><text x="0" y="95" fill="#000000" font-size="5px" font-weight="bold" font-family="'Helvetica Neue', Helvetica, Arial-Unicode, Arial, Sans-serif">Created by BraveBros.</text><text x="0" y="100" fill="#000000" font-size="5px" font-weight="bold" font-family="'Helvetica Neue', Helvetica, Arial-Unicode, Arial, Sans-serif">from the Noun Project</text></svg>