<?xml version="1.0" encoding="iso-8859-1"?>
<!-- Generator: Adobe Illustrator 16.0.0, SVG Export Plug-In . SVG Version: 6.00 Build 0)  -->
<!DOCTYPE svg PUBLIC "-//W3C//DTD SVG 1.1//EN" "http://www.w3.org/Graphics/SVG/1.1/DTD/svg11.dtd">
<svg version="1.1" id="Capa_1" xmlns="http://www.w3.org/2000/svg" xmlns:xlink="http://www.w3.org/1999/xlink" x="0px" y="0px"
	 width="42.207px" height="42.207px" viewBox="0 0 42.207 42.207" style="enable-background:new 0 0 42.207 42.207;"
	 xml:space="preserve">
<g>
	<g id="Layer_1_copy_49_">
		<path d="M6.175,20.889c-0.239-0.332-0.492-0.6-0.492-1.211v-2.036c0-0.861,0.061-1.653-0.574-2.247
			c-0.502-0.481-1.332-0.65-1.969-0.65c-1.242,0-2.628,0.463-2.921,1.999c-0.03,0.164,0.09,0.25,0.194,0.274l1.27,0.136
			c0.116-0.005,0.203-0.121,0.226-0.239c0.107-0.529,0.553-0.784,1.051-0.784c0.268,0,0.572,0.099,0.732,0.34
			c0.182,0.268,0.157,0.636,0.157,0.946v0.168c-0.756,0.088-1.746,0.143-2.456,0.455C0.577,18.392,0,19.114,0,20.174
			c0,1.357,0.856,2.036,1.955,2.036c0.93,0,1.438-0.219,2.154-0.95c0.237,0.344,0.315,0.512,0.749,0.872
			c0.098,0.052,0.222,0.046,0.309-0.03l0.004,0.002c0.26-0.23,0.733-0.645,1.001-0.867C6.278,21.146,6.26,21.006,6.175,20.889z
			 M3.849,18.915c0,0.509,0.014,0.933-0.244,1.385c-0.207,0.368-0.536,0.593-0.904,0.593c-0.501,0-0.792-0.381-0.792-0.946
			c0-1.113,0.997-1.315,1.94-1.315V18.915z M7.195,21.895v-6.704c0-0.134,0.113-0.241,0.252-0.241h1.218
			c0.127,0.005,0.229,0.103,0.237,0.224v0.876h0.022c0.319-0.847,0.916-1.242,1.721-1.242c0.817,0,1.329,0.396,1.695,1.242
			c0.317-0.847,1.035-1.242,1.806-1.242c0.546,0,1.145,0.226,1.511,0.733c0.413,0.564,0.329,1.383,0.329,2.102l-0.002,4.23
			c0,0.133-0.112,0.242-0.251,0.242h-1.305c-0.13-0.01-0.235-0.113-0.235-0.242v-3.554c0-0.283,0.025-0.988-0.037-1.257
			c-0.097-0.45-0.389-0.577-0.768-0.577c-0.316,0-0.647,0.211-0.781,0.549c-0.133,0.338-0.121,0.904-0.121,1.285v3.554
			c0,0.133-0.111,0.242-0.252,0.242H10.93c-0.132-0.01-0.236-0.113-0.236-0.242v-3.554c0-0.748,0.121-1.848-0.807-1.848
			c-0.938,0-0.9,1.073-0.9,1.848v3.554c0,0.133-0.112,0.242-0.251,0.242H7.429C7.304,22.107,7.204,22.014,7.195,21.895z
			 M26.184,24.691c-2.453,1.808-6.006,2.771-9.068,2.771c-4.291,0-8.153-1.588-11.076-4.229c-0.229-0.207-0.024-0.49,0.251-0.328
			c3.153,1.836,7.055,2.939,11.082,2.939c2.719,0,5.708-0.562,8.456-1.729C26.244,23.941,26.589,24.391,26.184,24.691z
			 M29.309,20.673v1.024c0,0.14-0.152,0.304-0.316,0.22c-1.32-0.692-3.072-0.769-4.533,0.006c-0.148,0.082-0.307-0.079-0.307-0.219
			v-0.973c0-0.156,0.002-0.422,0.158-0.659l2.578-3.696h-2.244c-0.14,0-0.248-0.098-0.248-0.241v-0.959
			c0-0.146,0.108-0.243,0.242-0.243h4.293c0.139,0,0.248,0.099,0.248,0.243v0.821c0,0.138-0.117,0.317-0.322,0.603l-2.228,3.176
			c0.828-0.021,1.699,0.103,2.449,0.525C29.249,20.396,29.294,20.536,29.309,20.673z M20.973,17.585
			c-0.757,0.087-1.747,0.142-2.456,0.454c-0.819,0.353-1.392,1.075-1.392,2.135c0,1.357,0.854,2.036,1.953,2.036
			c0.928,0,1.438-0.219,2.154-0.95c0.236,0.344,0.315,0.512,0.749,0.872c0.099,0.052,0.224,0.046,0.31-0.03l0.002,0.002
			c0.261-0.23,0.734-0.645,1-0.867c0.105-0.088,0.09-0.229,0.006-0.346c-0.238-0.332-0.49-0.6-0.49-1.211v-2.036
			c0-0.861,0.059-1.653-0.576-2.247c-0.501-0.481-1.332-0.65-1.967-0.65c-1.242,0-2.631,0.463-2.921,1.999
			c-0.031,0.164,0.087,0.25,0.194,0.274l1.266,0.136c0.118-0.005,0.205-0.121,0.228-0.239c0.107-0.529,0.552-0.784,1.05-0.784
			c0.269,0,0.574,0.099,0.731,0.34c0.185,0.268,0.16,0.636,0.16,0.946L20.973,17.585L20.973,17.585z M20.973,18.915
			c0,0.509,0.014,0.933-0.245,1.385c-0.206,0.368-0.537,0.593-0.901,0.593c-0.503,0-0.797-0.381-0.797-0.946
			c0-1.113,0.998-1.315,1.943-1.315V18.915z M32.874,14.809c-1.89,0-2.938,1.623-2.938,3.709c0,2.074,1.035,3.738,2.938,3.738
			c1.828,0,2.987-1.622,2.987-3.667C35.865,16.474,34.814,14.809,32.874,14.809z M32.874,20.875c-1.024,0-1.013-1.749-1.013-2.568
			c0-0.817,0.062-2.129,1.023-2.129c0.414,0,0.709,0.182,0.854,0.649c0.172,0.536,0.196,1.212,0.196,1.778
			C33.938,19.464,33.889,20.875,32.874,20.875z M41.865,15.599c0.342,0.537,0.342,1.438,0.342,2.087v4.22
			c-0.018,0.117-0.123,0.212-0.254,0.212h-1.311c-0.117-0.011-0.22-0.099-0.23-0.212v-3.641c0-0.733,0.086-1.806-0.814-1.806
			c-0.32,0-0.611,0.213-0.756,0.536c-0.186,0.41-0.209,0.817-0.209,1.27v3.608c-0.002,0.135-0.115,0.244-0.256,0.244h-1.299
			c-0.133-0.01-0.236-0.115-0.236-0.244l-0.002-6.705c0.012-0.123,0.119-0.219,0.252-0.219h1.211
			c0.113,0.005,0.209,0.083,0.234,0.188v1.025h0.021c0.364-0.917,0.879-1.354,1.78-1.354C40.923,14.809,41.498,15.021,41.865,15.599
			z M28.249,22.727c0.269,0.334-0.069,2.64-1.388,3.738c-0.202,0.168-0.396,0.078-0.305-0.146c0.297-0.738,0.959-2.394,0.646-2.795
			c-0.312-0.4-2.072-0.189-2.861-0.096c-0.241,0.028-0.276-0.181-0.062-0.332C25.682,22.111,27.982,22.396,28.249,22.727z"/>
	</g>
</g>
<g>
</g>
<g>
</g>
<g>
</g>
<g>
</g>
<g>
</g>
<g>
</g>
<g>
</g>
<g>
</g>
<g>
</g>
<g>
</g>
<g>
</g>
<g>
</g>
<g>
</g>
<g>
</g>
<g>
</g>
</svg>
